<svg xmlns="http://www.w3.org/2000/svg" viewBox="0 0 1446.5 438.11"><defs><style>.cls-1{fill:#fff;}</style></defs><g id="Capa_3" data-name="Capa 3"><path class="cls-1" d="M1206.43,186.34h-13.37a78.18,78.18,0,0,0-42.87,12.8l17.33-53-60.51,6L1063.9,284h58.58l14.94-45.74h.13c7-16.09,18.13-26.22,26.62-23.4,8.78,2.93,11.79,18.67,7.57,36.59L1161.27,284h58.57l10.36-31.75c.16-.49.28-1,.42-1.46l7-21.44A32.8,32.8,0,0,0,1206.43,186.34Z"/><path class="cls-1" d="M901.58,204.71a112.58,112.58,0,0,1,21.52,4.11l5.45-16.5c-13.77-4.67-45.25-7.41-65.26-6.36-41.95,2.2-74.85,18.59-73.64,34.29.58,7.56,11.14,15.09,26.09,20,13.48,4.46,22.49,10.78,21.77,16.64-1,8.15-15.64,14.92-37.8,8.69-9.78-2.74-22.63-9.53-22.63-9.53l-5.9,18.2c13.4,8.09,32.91,14.07,55,15.92,42.34,3.55,78-9.49,79.65-29.12.63-7.55-3.87-15-12-21.44l0-.05c-15.34-12.44-33.52-15.42-32.52-23.53S879.94,202.06,901.58,204.71Z"/><path class="cls-1" d="M985,239.58c0-22.94,34.08-29.87,57.5-29.87,13.77,0,23.75,3.48,31,5.43l5.75-18.09s-14.84-11.1-55-11.1-98.46,19.52-98.46,58.79,50.54,45.5,83.51,45.5c24.89,0,41.79-6,41.79-6l5.87-18s-6.39,1-22.87,1C1012.78,267.23,985,262.51,985,239.58Z"/><path class="cls-1" d="M587.79,186.44c-42.73,3.3-75.58,29.18-73.37,57.82s38.65,49.17,81.37,45.87,75.58-29.19,73.36-57.82S630.51,183.14,587.79,186.44Zm21.06,58.87c-6.64,20.33-20.09,34.18-30,30.93s-12.63-22.36-6-42.7,20.09-34.18,30-30.93S615.49,225,608.85,245.31Z"/><path class="cls-1" d="M493.45,186.32a49.07,49.07,0,0,0-38.82,19l4.23-13H400.29l-29.9,91.93H429l15.76-48.44a49.12,49.12,0,0,1,59-4.46l12.78-39.28A48.92,48.92,0,0,0,493.45,186.32Z"/><path class="cls-1" d="M770.69,146.11l-60.5,6L677,253.75a22.89,22.89,0,0,0-1,9.94h0a.06.06,0,0,1,0,0,23.22,23.22,0,0,0,6.91,13.8c11.22,11.2,32.31,12.71,38.64,12.71a56,56,0,0,0,37.3-14.48l5.85-18h-8.14a16.07,16.07,0,0,1-15.32-21.42Z"/><path class="cls-1" d="M370.59,246.94a20.29,20.29,0,0,0-19.3-26.58H302.7l-5.87,18h17.94A23.1,23.1,0,0,1,279.27,250c-7.94-5.81-13.8-14.27-13.8-26.51,0-33,48-49.37,81-49.37a175,175,0,0,1,45.85,6.2l5.85-18s-20.9-16-77.38-16-138.67,28.07-138.67,84.55,73,64.65,91.92,66a136.45,136.45,0,0,0,21.81-.4l-9,27.71h.09c-1,3-1.76,5.29-2,5.93-3.91,10.14-6.8,23.95-22.21,22.61-14.4-1.24-10-12.75-7.25-22.61h-18c-4.18,12.23-21,46.51,36.6,46.51,22.83,0,54.66-.56,69.53-46.51,1.08-3.32,7.14-22.2,7.14-22.2h0l7.74-23.74.07,0,9.94-30.56h0Z"/></g></svg>