<svg xmlns="http://www.w3.org/2000/svg" xmlns:xlink="http://www.w3.org/1999/xlink" viewBox="0 0 219.06 74.14">
  <defs>
    <linearGradient id="Degradado_sin_nombre_14" class="fullLogo"  x1="194.41" y1="46.2" x2="194.41" y2="19.58" gradientUnits="userSpaceOnUse">
      <stop offset="0" stop-color="#312782"/>
      <stop offset="1" stop-color="#2472b7"/>
    </linearGradient>

    <linearGradient id="Degradado_sin_nombre_14-2" class="fullLogo"  x1="136.15" y1="47.52" x2="136.15" y2="27.23" xlink:href="#Degradado_sin_nombre_14"/>
    <linearGradient id="Degradado_sin_nombre_14-3" class="fullLogo"  x1="165.63" y1="47.41" x2="165.63" y2="27.27" xlink:href="#Degradado_sin_nombre_14"/>
    <linearGradient id="Degradado_sin_nombre_14-4" class="fullLogo"  x1="86.32" y1="47.46" x2="86.32" y2="27.3" xlink:href="#Degradado_sin_nombre_14"/>
    <linearGradient id="Degradado_sin_nombre_14-5" class="fullLogo"  x1="57.67" y1="46.25" x2="57.67" y2="27.35" xlink:href="#Degradado_sin_nombre_14"/>
    <linearGradient id="Degradado_sin_nombre_14-6" class="fullLogo"  x1="111.7" y1="47.41" x2="111.7" y2="19.58" xlink:href="#Degradado_sin_nombre_14"/>
    <linearGradient id="Degradado_sin_nombre_8" class="fullLogo"  x1="28.07" y1="64.11" x2="28.07" y2="19.63" gradientUnits="userSpaceOnUse">
      <stop offset="0" stop-color="#761611"/>
      <stop offset="1" stop-color="#e00b14"/>
  </linearGradient>

</defs>

<g class="fullLogo" id="logo_background">
  <path d="M211.69,28.83A8.17,8.17,0,0,0,205,25.42h-2.58a16.91,16.91,0,0,0-5.06.77l2.88-8.82-15.88,1.56-2.89,8.85c-.73-.49-4.09-2.44-11.64-2.44-5.59,0-13,1.86-17.3,5.74l1.25-3.79L152,26.68c-3.05-1-9.47-1.53-13.33-1.33a30.75,30.75,0,0,0-10.31,2.22,11.45,11.45,0,0,0-4.53,3.09,5.17,5.17,0,0,0-1.1,2.13c-1.73,4.72-3.28,5.09-4,3.2-.55-1.34,1.19-7,1.19-7h0l3.81-11.66-15.88,1.56-4.95,15.14a11.29,11.29,0,0,0-5.51-6.27A22.46,22.46,0,0,0,74,29.6c-.27.22-.54.44-.79.67l.9-2.76-1.43-.76a11.5,11.5,0,0,0-10.38-.18H49.7L51.19,22l-1.09-.83c-.47-.36-4.88-3.48-16.12-3.48C22.41,17.7,5.28,23.5,5.28,36c0,5.39,3,9.58,8.64,12.12a34.2,34.2,0,0,0,10.89,2.56c.52,0,1.06,0,1.64,0h0l-.88,2.7-.32,1v0c-.09.24-.18.49-.28.74-.8,2.26-1.12,2.48-2,2.4l-.18,0a10.75,10.75,0,0,1,.35-1.47l.12-.44.67-2.44H16.51l-.45,1.3c0,.15-.11.32-.18.5-.65,1.78-1.87,5.1,0,7.83C17.42,65,20.38,66,25,66c4.16,0,11.92,0,15.26-10.32.21-.64,1.38-4.28,1.38-4.28l1.06-3.26H56.28L59.58,38a7.59,7.59,0,0,1,8.69-.37l1.17.76c0,.09,0,.17,0,.26C69.71,42,71.81,45,75.35,47a20.5,20.5,0,0,0,10,2.43c.63,0,1.26,0,1.89-.07a21.16,21.16,0,0,0,11.38-4.16,14,14,0,0,0,2.14-2.06,6.38,6.38,0,0,0,1.8,3.24c2.88,2.86,7.84,3,8.81,3A12.81,12.81,0,0,0,119.94,46h0a27.13,27.13,0,0,0,11.45,3.34c1,.08,2,.12,2.89.12,8.12,0,14.2-3,14.57-7.51a3.92,3.92,0,0,0,0-.6v-1s.07-.05.08,0l.34,1.11h0c1.16,3.74,5.23,7.93,17.65,7.93a28.71,28.71,0,0,0,8.53-1.21h14.71l3.22-9.85.06-.14c1-2.37,2.34-3.38,2.76-3.45.34.32.83,2,.21,4.71l-2.81,8.73H209l2.44-7.46c0-.1.06-.2.08-.3l1.35-4.12A8.17,8.17,0,0,0,211.69,28.83Z" style="fill:#fff"/></g><g id="logo"><path d="M205,27.35h-2.58a15.12,15.12,0,0,0-8.28,2.47l3.35-10.24-11.68,1.15L177.48,46.2h11.31l2.89-8.83h0c1.36-3.11,3.5-5.06,5.14-4.52s2.28,3.61,1.46,7.07l-2,6.28h11.31l2-6.13c0-.09.06-.19.08-.28L211,35.65A6.33,6.33,0,0,0,205,27.35Z" style="fill:url(#Degradado_sin_nombre_14)"/><path d="M146.14,30.9a21.75,21.75,0,0,1,4.15.79l1.05-3.19c-2.65-.9-8.73-1.43-12.6-1.22-8.1.42-14.45,3.59-14.22,6.62.12,1.46,2.16,2.91,5,3.87,2.61.86,4.34,2.08,4.21,3.21-.2,1.57-3,2.88-7.3,1.68a27.75,27.75,0,0,1-4.37-1.84L121,44.33a25.27,25.27,0,0,0,10.61,3.08c8.18.68,15.06-1.84,15.38-5.63.12-1.45-.75-2.89-2.32-4.14h0c-3-2.4-6.47-3-6.28-4.54S142,30.38,146.14,30.9Z" style="fill:url(#Degradado_sin_nombre_14-2)"/><path d="M162.25,37.63c0-4.43,6.58-5.77,11.1-5.77a20.7,20.7,0,0,1,6,1l1.11-3.49s-2.86-2.15-10.61-2.15-19,3.77-19,11.36,9.76,8.78,16.13,8.78A26.32,26.32,0,0,0,175,46.25l1.14-3.47a34,34,0,0,1-4.42.19C167.61,43,162.25,42.06,162.25,37.63Z" style="fill:url(#Degradado_sin_nombre_14-3)"/><path d="M85.55,27.37C77.29,28,71,33,71.38,38.53s7.46,9.5,15.71,8.86,14.59-5.64,14.17-11.16S93.8,26.73,85.55,27.37Zm4.06,11.37c-1.28,3.92-3.88,6.6-5.8,6s-2.44-4.32-1.15-8.25,3.87-6.6,5.8-6S90.9,34.81,89.61,38.74Z" style="fill:url(#Degradado_sin_nombre_14-4)"/><path d="M67.33,27.35A9.46,9.46,0,0,0,59.83,31l.82-2.52H49.34L43.57,46.25H54.88l3-9.35A9.46,9.46,0,0,1,69.31,36l2.47-7.59A9.52,9.52,0,0,0,67.33,27.35Z" style="fill:url(#Degradado_sin_nombre_14-5)"/><path d="M120.86,19.58l-11.68,1.15-6.42,19.64a4.52,4.52,0,0,0-.19,1.92h0A4.41,4.41,0,0,0,103.91,45c2.17,2.16,6.24,2.45,7.46,2.45a10.8,10.8,0,0,0,7.2-2.79l1.13-3.48h-1.57a3.11,3.11,0,0,1-3-4.14Z" style="fill:url(#Degradado_sin_nombre_14-6)"/><path d="M43.61,39.05a3.92,3.92,0,0,0-3.73-5.13H30.5l-1.14,3.47h3.47A4.47,4.47,0,0,1,26,39.64a6.1,6.1,0,0,1-2.66-5.12c0-6.37,9.26-9.53,15.63-9.53a33.4,33.4,0,0,1,8.86,1.2l1.13-3.48s-4-3.08-15-3.08S7.21,25.05,7.21,36,21.3,48.44,25,48.71a26.1,26.1,0,0,0,4.21-.08L27.43,54h0c-.2.59-.34,1-.39,1.15-.76,2-1.31,4.62-4.29,4.37-2.78-.25-1.92-2.47-1.4-4.37H17.89c-.81,2.36-4.05,9,7.07,9,4.4,0,10.55-.11,13.42-9,.21-.64,1.38-4.29,1.38-4.29h0l1.5-4.58h0l1.92-5.9h0Z" style="fill:url(#Degradado_sin_nombre_8)"/></g></svg>
