<svg xmlns="http://www.w3.org/2000/svg" viewBox="0 0 90.71 91.8">
  <g id="shield">
    <path d="M44.47,85.53h0l-1.28-.37A45.24,45.24,0,0,1,10.68,41.75V10.06l1.92-.41a147.73,147.73,0,0,1,63.65.41h0V42.35A45.22,45.22,0,0,1,44.47,85.53Z" style="fill:#e00b14"/>
    <path d="M43.68,16.76A10.56,10.56,0,0,0,45.79,20c1.22,1.09,2.73,2.66,2.73,2.66L49,21.17s2.42,2.86,2.9,5.41l1.31-.86s2.05,5,1.61,6.83l1.25-.39s.62,5.44-.32,6.68l1.66,0s-.79,4.36-2.45,6.47l1.44.28s-2.38,5-6.57,7.2-4.35.91-4.35.91a80,80,0,0,0,0-29.06A138,138,0,0,1,46,40.72c-.18,4.92-1.52,9.29-1.48,12.75A39,39,0,0,0,45,60.35c.06.43-1.58,1.65-1.84.43-.4-1.82.22-6.25-.84-7.13-1.78-1.46-7-1.94-9.44-7.73l1.4-.52a35,35,0,0,1-2.94-6.65l1.87.28a12.67,12.67,0,0,1-.39-7l1.51.85s-.84-2.33,1.56-6.64l1.16.92s-.32-2.35,2.38-5.63l.75,1.1A7.85,7.85,0,0,1,43.68,16.76Z" style="fill:#fff"/>
    <path d="M70.94,47a12.49,12.49,0,0,1-.67,1.76,12.81,12.81,0,0,1-.88,1.63,16.33,16.33,0,0,1-1.15,1.43A2,2,0,0,1,68,52l-.35-.24a3.73,3.73,0,0,0-3.27-.46l.37-.68a3.72,3.72,0,0,0,2.3-4.55l-.18-.61.09-.17a12.26,12.26,0,0,0,.78-2c.22-.69.43-1.39.59-2.09s.28-1.42.39-2.14H68.7a32.11,32.11,0,0,1-1.32,4.1c-.27.66-.6,1.3-.86,2l-.19.46-.15.05a3.72,3.72,0,0,0-2.51,4.62l0,.15-.35.63a3.7,3.7,0,0,0-1.61-2.84l-.6-.41L61,48c0-.41-.05-.81-.07-1.22s0-.9,0-1.34A4.47,4.47,0,0,1,61,44.16l-.05,0a4.68,4.68,0,0,0-.38,1.31c-.06.46-.11.91-.14,1.36a7,7,0,0,0,0,1.37c0,.19,0,.38.08.57a3.72,3.72,0,0,0,1.21,4.77l.13.09-.58.92a3.75,3.75,0,0,0-1.65-2.89l-.8-.53-.53.8a3.72,3.72,0,0,0,1,5.16l.15.1-.74,1a3.72,3.72,0,0,0-1.41-2.83l-.57-.45-.46.57a3.72,3.72,0,0,0,.52,5.14l-.72.83a3.71,3.71,0,0,0-1.43-2.83L53.91,58l-.59.76a3.71,3.71,0,0,0,.54,5.12l-.91.92a3.72,3.72,0,0,0-1.19-3.29L51,60.87l-.64.72a3.72,3.72,0,0,0,.28,5.25l0,0-1,.89a3.71,3.71,0,0,0-.59-3.2L48.68,64l-.59.43a3.72,3.72,0,0,0-.78,5.2l0,.06A51.5,51.5,0,0,1,32.21,78l.29,1a52.55,52.55,0,0,0,15.59-8.53l0,0a3.72,3.72,0,0,0,5.21.79l.77-.57-1-1.3a3,3,0,0,0-2.26-1.23l.65-.58.8.72a3.06,3.06,0,0,0,4.32-.23l1.08-1.2L57,66.26a3.72,3.72,0,0,0-3.11-.9c.27-.26.53-.53.79-.8l.51.4a3.72,3.72,0,0,0,5.22-.66l.59-.75L60.25,63a3.73,3.73,0,0,0-3.58-.55l1.07-1.24.18.14a3.72,3.72,0,0,0,5.23-.61l.59-.75-.75-.6a3.73,3.73,0,0,0-3.31-.66c.23-.3.46-.6.68-.92l.26.17a3.72,3.72,0,0,0,5.16-1l.53-.8-.8-.53a3.71,3.71,0,0,0-3.41-.36l.71-1.11a3.71,3.71,0,0,0,5.13-1l.54-.79h0l.16-.14a6.22,6.22,0,0,0,1.12-1.58A11.66,11.66,0,0,0,71,47Z" style="fill:#fff"/><path d="M55.08,78a51.23,51.23,0,0,1-15.14-8.28l0-.06a3.72,3.72,0,0,0-.79-5.2L38.6,64l-.43.58a3.74,3.74,0,0,0-.59,3.2l-1-.89,0,0a3.71,3.71,0,0,0,.28-5.25l-.64-.72-.71.65a3.73,3.73,0,0,0-1.2,3.29l-.9-.92A3.72,3.72,0,0,0,34,58.77L33.37,58l-.75.59a3.69,3.69,0,0,0-1.44,2.83c-.24-.27-.48-.55-.71-.83A3.72,3.72,0,0,0,31,55.46l-.45-.57-.57.45a3.66,3.66,0,0,0-1.41,2.83c-.25-.33-.5-.66-.74-1l.15-.1a3.73,3.73,0,0,0,1-5.16l-.53-.8-.8.53A3.72,3.72,0,0,0,26,54.53c-.2-.31-.4-.61-.59-.92l.14-.09a3.72,3.72,0,0,0,1.2-4.77,5.62,5.62,0,0,0,.09-.57,7.85,7.85,0,0,0,0-1.37c0-.45-.07-.9-.14-1.36a4.68,4.68,0,0,0-.38-1.31l-.05,0a4.16,4.16,0,0,1,.16,1.32,12,12,0,0,1,0,1.34c0,.41-.08.81-.07,1.22l-.2-.29-.6.41A3.73,3.73,0,0,0,23.91,51l-.34-.63,0-.15A3.72,3.72,0,0,0,21.1,45.6L21,45.55c-.06-.15-.12-.31-.19-.46-.26-.66-.59-1.3-.86-2A32.11,32.11,0,0,1,18.58,39h0c.1.72.22,1.43.39,2.14s.36,1.4.58,2.09a12.26,12.26,0,0,0,.78,2l.09.17-.18.61a3.72,3.72,0,0,0,2.3,4.55c.12.23.25.45.38.68a3.74,3.74,0,0,0-3.28.46l-.35.24c-.06-.07-.14-.13-.2-.21a16.24,16.24,0,0,1-1.14-1.43A12.88,12.88,0,0,1,17,48.75,13.85,13.85,0,0,1,16.34,47h-.05a11.93,11.93,0,0,0,1.24,3.6,6.48,6.48,0,0,0,1.12,1.58l.16.14h0l.55.79a3.71,3.71,0,0,0,5.13,1c.23.38.46.74.7,1.11a3.69,3.69,0,0,0-3.4.36l-.8.53.53.8a3.72,3.72,0,0,0,5.16,1l.25-.17c.23.32.45.62.68.92a3.73,3.73,0,0,0-3.31.66l-.75.6.6.75a3.71,3.71,0,0,0,5.22.61l.19-.14c.35.42.71.83,1.06,1.24A3.73,3.73,0,0,0,27,63l-.75.59.58.75a3.74,3.74,0,0,0,5.23.66l.5-.4.79.8a3.72,3.72,0,0,0-3.11.9l-.71.64,1.08,1.2a3.07,3.07,0,0,0,4.33.23l.8-.72c.21.2.43.4.64.58a3.05,3.05,0,0,0-2.26,1.23l-.95,1.3.77.57a3.71,3.71,0,0,0,5.2-.79l0,0A52.66,52.66,0,0,0,54.79,79Z" style="fill:#fff"/><path d="M44.49,87.66l-1.87-.55a47.27,47.27,0,0,1-34-45.36V8.42l3.53-.76a150.84,150.84,0,0,1,64.53.42l1.58.36V42.35A47.06,47.06,0,0,1,45.07,87.48ZM12.71,11.71v30A43.44,43.44,0,0,0,43.76,83.21l.68.2A43,43,0,0,0,74.21,42.35V11.7A146.69,146.69,0,0,0,13,11.64Z" style="fill:#fff"/>
  </g>
</svg>
