<svg xmlns="http://www.w3.org/2000/svg" viewBox="0 0 40 40">
  <g id="background">
    <rect id="rectangle" x="0.01" width="40" height="40" rx="5"/>
  </g>

  <g id="icon">
    <path d="M31.35,30.32a6.5,6.5,0,0,1-3.74,2.53,16.93,16.93,0,0,1-4.14.36c-2.28,0-4.57,0-6.85,0a17.85,17.85,0,0,1-4.12-.42A7,7,0,0,1,10.83,32a5.6,5.6,0,0,1-1.94-2,7.17,7.17,0,0,1-1-3.2c-.14-1.42-.13-2.85-.16-4.28,0-1.84,0-3.67,0-5.51A17.45,17.45,0,0,1,8,13.92a6.75,6.75,0,0,1,5.92-5.64c.86-.11,1.74-.1,2.61-.14,2.27-.08,4.54,0,6.81,0A21,21,0,0,1,27,8.34a6.72,6.72,0,0,1,4.75,3.37,7.3,7.3,0,0,1,.94,3.37q.26,5.67,0,11.34A7.15,7.15,0,0,1,31.35,30.32Zm-1.24-2.55a5.83,5.83,0,0,0,.35-1.85c.12-3.5.12-7,0-10.51A7,7,0,0,0,30,13.23,3.86,3.86,0,0,0,27.65,11a8.27,8.27,0,0,0-2.7-.45c-2.4-.1-4.81,0-7.21-.06-1.06,0-2.12,0-3.18.12a4.76,4.76,0,0,0-3.45,1.65,5.32,5.32,0,0,0-1.06,3.17c-.13,2.07-.07,4.15-.07,6.22a42.4,42.4,0,0,0,.14,5.17,4.34,4.34,0,0,0,3.44,3.94,9.33,9.33,0,0,0,2.18.22c3.41.09,6.83.15,10.25-.06A4.92,4.92,0,0,0,28.5,30,3.92,3.92,0,0,0,30.11,27.77Z" style="fill:#1b4a7e"/>
    <path d="M26,23.64a6.36,6.36,0,0,1-5.26,3.48,5.81,5.81,0,0,1-2.61-.35,6.35,6.35,0,0,1-4.21-5.08c0-.17-.16-.33-.07-.52a6.58,6.58,0,0,1,.3-2.46,5.75,5.75,0,0,1,.7-1.43,6.41,6.41,0,0,1,10.58-.34,6.21,6.21,0,0,1,1.22,3.28A6.7,6.7,0,0,1,26,23.64Zm-1.65-2.09h0a4.16,4.16,0,0,0-6.53-4.2,3.87,3.87,0,0,0-1.69,2.72,4.07,4.07,0,0,0,.76,3.15,4,4,0,0,0,2.46,1.6,4.2,4.2,0,0,0,2.74-.37,3.9,3.9,0,0,0,2.19-2.64A.34.34,0,0,0,24.33,21.55Z" style="fill:#1b4a7e"/><path d="M28.41,14.08a1.49,1.49,0,1,1-1.49-1.5A1.48,1.48,0,0,1,28.41,14.08Z" style="fill:#1b4a7e"/>
  </g>
</svg>
