<svg xmlns="http://www.w3.org/2000/svg" viewBox="0 0 40 40"><g id="background"><rect x="0.01" width="40" height="40" rx="5" style="fill:#fff"/></g><g id="icon"><path d="M32.81,14A3.07,3.07,0,0,0,30,11.22c-1.94-.16-5.13-.33-10-.33-5,0-8.18.16-10.07.32A3.09,3.09,0,0,0,7.13,14c-.12,1.29-.22,3.17-.22,5.88s.1,4.79.22,6.1a3.08,3.08,0,0,0,2.8,2.79c2,.17,5.26.35,10.08.35,5.12,0,8.21-.14,10-.29a3.07,3.07,0,0,0,2.8-2.77c.14-1.37.26-3.39.26-6.18A57.59,57.59,0,0,0,32.81,14ZM16.24,24.49V15.12L25.3,20Z" style="fill:#1b4a7e"/></g></svg>