<svg xmlns="http://www.w3.org/2000/svg" viewBox="0 0 40 40"><g id="background"><rect x="0.01" width="40" height="40" rx="5" style="fill:#fff"/></g><g id="icon"><path d="M14.77,26.1a5.43,5.43,0,0,1-3.64-1.53A5.31,5.31,0,0,1,9.71,22.3a5.31,5.31,0,0,0,2.41-.09A5.5,5.5,0,0,1,7.79,16.8a5.51,5.51,0,0,0,2.43.68s0,0,0-.05a5.46,5.46,0,0,1-1.64-7.15c0-.07.05-.06.1,0a15.47,15.47,0,0,0,5.49,4.23,15.28,15.28,0,0,0,4.73,1.31l.85.08c.07,0,.09,0,.08-.08A5.37,5.37,0,0,1,21,11.14,5.22,5.22,0,0,1,24.14,9.3a5.36,5.36,0,0,1,4.19,1,4.37,4.37,0,0,1,.69.6.14.14,0,0,0,.15.05,11,11,0,0,0,2.94-1.07l.43-.24a5.49,5.49,0,0,1-2.34,3,11.27,11.27,0,0,0,3.07-.83l-.07.1a10.73,10.73,0,0,1-2.58,2.67.15.15,0,0,0-.06.13,17.57,17.57,0,0,1,0,1.78,15.42,15.42,0,0,1-.63,3.29,16.55,16.55,0,0,1-1.58,3.61,15.88,15.88,0,0,1-2.85,3.53,14.64,14.64,0,0,1-3.54,2.4,15.36,15.36,0,0,1-3.87,1.25,16.69,16.69,0,0,1-3.53.25,15.55,15.55,0,0,1-6.1-1.49,17.09,17.09,0,0,1-1.62-.9l-.07,0A11,11,0,0,0,14.77,26.1Z" style="fill:#1b4a7e"/></g></svg>